<?xml version="1.0" standalone="no"?>
<!DOCTYPE svg PUBLIC "-//W3C//DTD SVG 20010904//EN"
 "http://www.w3.org/TR/2001/REC-SVG-20010904/DTD/svg10.dtd">
<svg version="1.0" xmlns="http://www.w3.org/2000/svg"
 width="150.000000pt" height="150.000000pt" viewBox="0 0 150.000000 150.000000"
 preserveAspectRatio="xMidYMid meet">

<g transform="translate(0.000000,150.000000) scale(0.100000,-0.100000)"
fill="#000000" stroke="none">
<path d="M344 775 c-4 -15 -1 -32 6 -40 14 -17 46 -20 55 -5 4 6 -4 9 -17 7
-19 -2 -24 3 -26 27 -3 26 -1 28 22 24 14 -3 26 -1 26 3 0 5 -13 9 -30 9 -23
0 -31 -5 -36 -25z"/>
<path d="M530 793 c0 -16 -46 -30 -62 -20 -22 14 -48 1 -48 -23 0 -26 27 -37
51 -22 11 7 20 8 24 2 3 -6 15 -10 26 -10 16 0 19 7 19 40 0 22 -2 40 -5 40
-3 0 -5 -3 -5 -7z m-64 -34 c10 -17 -13 -36 -27 -22 -12 12 -4 33 11 33 5 0
12 -5 16 -11z m64 -9 c0 -11 -7 -20 -15 -20 -15 0 -21 21 -8 33 12 13 23 7 23
-13z"/>
<path d="M841 760 c0 -38 2 -41 10 -21 l9 23 20 -23 c11 -13 19 -19 20 -13 0
5 -6 16 -12 22 -10 10 -10 17 0 32 15 24 0 27 -19 4 -12 -14 -14 -14 -20 3 -5
11 -8 2 -8 -27z"/>
<path d="M1043 760 c0 -25 2 -35 4 -22 2 12 2 32 0 45 -2 12 -4 2 -4 -23z"/>
<path d="M556 765 c-9 -24 4 -45 28 -44 16 1 17 2 4 6 -10 2 -18 13 -18 24 0
21 16 26 23 7 2 -7 8 -10 12 -6 11 10 -4 28 -25 28 -10 0 -20 -7 -24 -15z"/>
<path d="M913 755 c2 -23 7 -31 25 -33 19 -3 22 1 21 30 -2 31 -2 31 -6 5 -5
-33 -24 -31 -35 4 -6 22 -7 21 -5 -6z"/>
<path d="M980 767 c0 -9 -3 -22 -6 -31 -3 -9 -1 -16 5 -16 6 0 11 11 11 25 0
14 5 25 10 25 6 0 10 -11 10 -25 0 -14 5 -25 11 -25 6 0 9 12 7 28 -2 19 -9
28 -25 30 -15 2 -23 -2 -23 -11z"/>
<path d="M1064 765 c-10 -24 4 -45 28 -44 17 1 18 2 6 6 -19 5 -25 43 -8 43 6
0 10 -4 10 -10 0 -5 5 -10 11 -10 8 0 8 5 -1 15 -7 8 -19 15 -27 15 -7 0 -16
-7 -19 -15z"/>
</g>
</svg>
